Coordinates
version=1
nRows=11
nColumns=36
inDegrees=yes

Units are S.I. units (second, meters, Newtons, ...)
If the header above contains a line with 'inDegrees', this indicates whether rotational values are in degrees (yes) or radians (no).

endheader
time	pelvis_tilt	pelvis_list	pelvis_rotation	pelvis_tx	pelvis_ty	pelvis_tz	hip_flexion_r	hip_adduction_r	hip_rotation_r	knee_angle_r	knee_angle_r_beta	ankle_angle_r	subtalar_angle_r	mtp_angle_r	hip_flexion_l	hip_adduction_l	hip_rotation_l	knee_angle_l	knee_angle_l_beta	ankle_angle_l	subtalar_angle_l	mtp_angle_l	lumbar_extension	lumbar_bending	lumbar_rotation	arm_flex_r	arm_add_r	arm_rot_r	elbow_flex_r	pro_sup_r	arm_flex_l	arm_add_l	arm_rot_l	elbow_flex_l	pro_sup_l
     29.95000000	      0.48275232	      4.33394999	      0.50981321	      0.85454543	      0.77151846	      0.70812414	    -24.66795493	     -1.98834145	     -0.85274702	     11.55994177	      0.20175905	     13.93602733	     -4.36534092	     -7.49999987	     29.03390125	      7.01011381	      6.17054342	     17.73409699	      0.30951838	      3.21694719	     -8.05076948	     -7.49999987	     -7.00840251	     -4.17291228	      5.49406106	     18.41805482	    -19.15386715	      0.71716072	     36.31163772	     92.01439885	      1.48784722	    -10.38099270	     -5.94675592	      4.82733723	     96.66729681
     29.96666670	      1.69401999	      4.78756254	      0.95844699	      0.85660899	      0.78063357	      0.70563290	    -24.00918391	     -2.72277387	     -2.53214137	     17.50982919	      0.30560417	      9.06451325	     -6.10852480	     -7.49999987	     27.10243186	      8.02113110	      6.87454684	     19.87946654	      0.34696214	      2.04451642	     -8.92397216	     -7.49999987	     -8.39708004	     -4.93924438	      4.43002031	     17.72971664	    -18.24269853	      0.94992362	     35.80173587	     92.77239278	      1.43789768	    -10.65356210	     -5.65323591	      4.97858371	     96.40445880
     29.98333330	      2.72180946	      4.99215716	      1.40893264	      0.85974492	      0.79204463	      0.70401340	    -21.25774629	     -3.75840339	     -4.56637777	     26.22378749	      0.45769143	      1.42693236	     -7.98590636	     -7.49999987	     24.87788214	      8.68542071	      7.66652543	     21.26270817	      0.37110427	      1.47701053	     -9.52336286	     -7.49999987	     -9.60505009	     -5.34256982	      3.54158086	     16.65240795	    -17.23545067	     -0.38204166	     35.51639452	     97.92734668	      1.47983062	    -10.77301495	     -5.85111222	      5.24270324	     98.32654279
     30.00000000	      3.23344615	      5.09505897	      1.43706106	      0.86278027	      0.80150182	      0.70279210	    -16.95702432	     -5.17158354	     -5.84505283	     35.66022988	      0.62238842	     -6.94903973	    -10.29250796	     -7.49999987	     22.57120057	      8.94648137	      8.22090120	     21.30154644	      0.37178212	      1.81084408	     -9.35813388	     -7.49999987	    -10.05952963	     -5.64118280	      3.21211889	     15.62028721	    -16.54104448	     -0.10609893	     34.34016064	     96.15399051	      1.57898152	    -10.74703373	     -5.09118731	      5.46352156	     96.18304647
     30.01666670	      3.47984618	      4.95033208	      1.00644011	      0.86603946	      0.80685495	      0.70048562	    -12.39128251	     -6.29693804	     -6.08381953	     43.79171745	      0.76430965	    -13.02688008	    -12.08375060	     -7.49999987	     20.19201175	      8.75322602	      8.64015738	     20.41336815	      0.35628049	      2.53750783	     -9.31399790	     -7.49999987	    -10.21013603	     -5.61514714	      3.07765142	     14.95178207	    -16.02636218	      0.92293276	     32.57365199	     97.23524814	      1.56547605	    -10.65053740	     -3.70264305	      5.99419227	     95.99900894
     30.03333330	      3.46699724	      4.68442314	      0.32300086	      0.86898185	      0.80934525	      0.69785795	     -7.93903256	     -6.98983420	     -5.72196283	     50.21293600	      0.87638106	    -15.68211390	    -12.95368887	     -7.49999987	     18.00645281	      8.30346389	      8.56753396	     19.22296041	      0.33550395	      3.39715284	     -9.02915530	     -7.49999987	    -10.05205337	     -5.43465794	      3.44797162	     13.76016770	    -15.48868272	      0.54576340	     31.04053442	     99.84283682	      2.01582623	    -10.38288437	     -3.45126070	      6.23648047	     96.28093893
     30.05000000	      3.11609199	      4.39473098	     -0.43384024	      0.86976608	      0.80994314	      0.69719869	     -3.39027742	     -7.16879579	     -4.90283723	     55.28639614	      0.96492964	    -16.72798398	    -14.71982347	     -7.49999987	     16.20338133	      7.77963105	      8.09957515	     18.08714064	      0.31568016	      3.95339990	     -8.89457136	     -7.49999987	     -9.53916148	     -5.29238165	      4.07122706	     11.87926672	    -15.07405492	      0.68278471	     30.18389166	     94.99106149	      2.69336995	     -9.98734923	     -3.40572459	      6.42874637	     91.58524501
     30.06666670	      3.21840111	      3.90315111	     -0.56836313	      0.86813378	      0.81115287	      0.69708061	      0.32747146	     -6.99519390	     -4.87839158	     59.23319035	      1.03381420	    -14.48888149	    -13.91914014	     -7.49999987	     13.97924176	      7.32325802	      8.40431143	     17.12845129	      0.29894787	      4.26444638	     -9.39271957	     -7.49999987	     -9.59583067	     -4.54902103	      3.18301295	     11.49271298	    -14.33882750	      0.56136668	     27.00914323	    100.78712230	      3.34891406	     -9.84947483	     -1.92673415	      6.77358258	     95.16899154
     30.08333330	      3.06979565	      3.51084180	     -0.84171120	      0.86741679	      0.81261331	      0.69738893	      4.31269365	     -6.61389959	     -4.46520298	     62.42316455	      1.08948975	    -11.63961647	    -14.32097570	     -7.49999987	     12.09101901	      6.87127596	      8.37486843	     16.23635206	      0.28337780	      4.46247961	     -9.91956089	     -7.49999987	     -9.48620060	     -4.08282614	      2.74252442	     10.39145659	    -13.69990343	      0.49313288	     25.04380785	    101.00543666	      4.37913781	     -9.68926828	     -0.75918931	      7.07936932	     95.01669312
     30.10000000	      3.00710441	      3.11828943	     -1.06147850	      0.86858131	      0.81490327	      0.69762977	      7.96540685	     -6.05516092	     -4.04598205	     64.47249370	      1.12525729	     -7.83714177	    -14.78921371	     -7.49999987	     10.11353391	      6.41270565	      8.42860664	     15.40711956	      0.26890496	      4.68989660	    -10.57022582	     -7.49999987	     -9.47905386	     -3.61283316	      2.00480844	      9.38886464	    -13.00015362	      0.97704097	     23.10095051	     99.26099393	      5.43880509	     -9.60092728	      0.64224885	      7.45140419	     93.19228825
     30.11666670	      3.00759437	      2.70776349	     -1.25541978	      0.86940550	      0.81785285	      0.69901389	     11.22127137	     -5.31023900	     -3.64069911	     65.10334875	      1.13626779	     -3.42811978	    -15.08230677	     -7.49999987	      7.96138371	      5.88089980	      8.49059894	     14.51080696	      0.25326136	      5.14783879	    -10.97733773	     -7.49999987	     -9.48092541	     -3.14836957	      1.18235182	      8.33869983	    -12.29023444	      1.55632182	     21.21323371	     98.63676291	      6.56153825	     -9.69660278	      1.75236554	      7.93088883	     92.60600272
